<svg id="visual" viewBox="0 0 900 600" width="900" height="600" xmlns="http://www.w3.org/2000/svg" xmlns:xlink="http://www.w3.org/1999/xlink" version="1.1"><rect x="0" y="0" width="900" height="600" fill="#FFFFFF"></rect><path d="M0 448L21.5 438.2C43 428.3 86 408.7 128.8 407.5C171.7 406.3 214.3 423.7 257.2 431.3C300 439 343 437 385.8 435C428.7 433 471.3 431 514.2 427.2C557 423.3 600 417.7 642.8 418C685.7 418.3 728.3 424.7 771.2 420C814 415.3 857 399.7 878.5 391.8L900 384L900 601L878.5 601C857 601 814 601 771.2 601C728.3 601 685.7 601 642.8 601C600 601 557 601 514.2 601C471.3 601 428.7 601 385.8 601C343 601 300 601 257.2 601C214.3 601 171.7 601 128.8 601C86 601 43 601 21.5 601L0 601Z" fill="#1a98f3"></path><path d="M0 436L21.5 428.8C43 421.7 86 407.3 128.8 411.7C171.7 416 214.3 439 257.2 452.5C300 466 343 470 385.8 465.7C428.7 461.3 471.3 448.7 514.2 444.2C557 439.7 600 443.3 642.8 444C685.7 444.7 728.3 442.3 771.2 439.5C814 436.7 857 433.3 878.5 431.7L900 430L900 601L878.5 601C857 601 814 601 771.2 601C728.3 601 685.7 601 642.8 601C600 601 557 601 514.2 601C471.3 601 428.7 601 385.8 601C343 601 300 601 257.2 601C214.3 601 171.7 601 128.8 601C86 601 43 601 21.5 601L0 601Z" fill="#0083f4"></path><path d="M0 486L21.5 485.8C43 485.7 86 485.3 128.8 482.8C171.7 480.3 214.3 475.7 257.2 469.8C300 464 343 457 385.8 460C428.7 463 471.3 476 514.2 481.8C557 487.7 600 486.3 642.8 482.3C685.7 478.3 728.3 471.7 771.2 468.7C814 465.7 857 466.3 878.5 466.7L900 467L900 601L878.5 601C857 601 814 601 771.2 601C728.3 601 685.7 601 642.8 601C600 601 557 601 514.2 601C471.3 601 428.7 601 385.8 601C343 601 300 601 257.2 601C214.3 601 171.7 601 128.8 601C86 601 43 601 21.5 601L0 601Z" fill="#006cf0"></path><path d="M0 532L21.5 529.7C43 527.3 86 522.7 128.8 522.2C171.7 521.7 214.3 525.3 257.2 519.7C300 514 343 499 385.8 494.3C428.7 489.7 471.3 495.3 514.2 498.8C557 502.3 600 503.7 642.8 504C685.7 504.3 728.3 503.7 771.2 503C814 502.3 857 501.7 878.5 501.3L900 501L900 601L878.5 601C857 601 814 601 771.2 601C728.3 601 685.7 601 642.8 601C600 601 557 601 514.2 601C471.3 601 428.7 601 385.8 601C343 601 300 601 257.2 601C214.3 601 171.7 601 128.8 601C86 601 43 601 21.5 601L0 601Z" fill="#1452e8"></path><path d="M0 525L21.5 528.5C43 532 86 539 128.8 544.5C171.7 550 214.3 554 257.2 553.2C300 552.3 343 546.7 385.8 546C428.7 545.3 471.3 549.7 514.2 552C557 554.3 600 554.7 642.8 550.5C685.7 546.3 728.3 537.7 771.2 533.5C814 529.3 857 529.7 878.5 529.8L900 530L900 601L878.5 601C857 601 814 601 771.2 601C728.3 601 685.7 601 642.8 601C600 601 557 601 514.2 601C471.3 601 428.7 601 385.8 601C343 601 300 601 257.2 601C214.3 601 171.7 601 128.8 601C86 601 43 601 21.5 601L0 601Z" fill="#3232db"></path></svg>